
<svg width="21" height="21" viewBox="0 0 21 21" fill="none" xmlns="http://www.w3.org/2000/svg">
<path d="M12.0582 3.0007C11.3017 1.60432 9.29775 1.60431 8.54122 3.00069L7.03101 5.78822C6.74296 6.31989 6.22984 6.69269 5.63518 6.80235L2.51741 7.37725C0.955591 7.66525 0.336332 9.57112 1.43059 10.7221L3.615 13.0198C4.03164 13.4581 4.22763 14.0613 4.14816 14.6607L3.73148 17.8035C3.52275 19.3779 5.14399 20.5558 6.5768 19.8708L9.43706 18.5033C9.9826 18.2425 10.6169 18.2425 11.1624 18.5033L14.0226 19.8708C15.4555 20.5558 17.0767 19.3779 16.868 17.8036L16.4513 14.6607C16.3718 14.0613 16.5678 13.4581 16.9844 13.0198L19.1689 10.7221C20.2631 9.57112 19.6439 7.66525 18.082 7.37725L14.9643 6.80235C14.3696 6.69269 13.8565 6.31989 13.5684 5.78822L12.0582 3.0007Z" fill="#D3D3D3"/>
<circle cx="15.7998" cy="16.2549" r="4" fill="white" stroke="#D3D3D3"/>
<path d="M13.7998 16.2549H17.7998M15.7998 14.2549V18.2549" stroke="#D3D3D3" stroke-linecap="round"/>
</svg>
