<svg width="89" height="84" viewBox="0 0 89 84" fill="none" xmlns="http://www.w3.org/2000/svg">
<g filter="url(#filter0_f_733_17200)">
<path d="M15.562 56.0381C14.8076 54.6326 12.792 54.6326 12.0376 56.0381L10.1743 59.5097C9.88757 60.0439 9.37405 60.4192 8.77804 60.5301L4.90169 61.2516C3.34599 61.5412 2.72681 63.4372 3.81175 64.5891L6.54917 67.4956C6.96093 67.9328 7.15443 68.5318 7.07623 69.1273L6.55652 73.0841C6.34942 74.6609 7.97646 75.837 9.40874 75.1458L12.9306 73.4462C13.4797 73.1811 14.1199 73.1811 14.6691 73.4462L18.1909 75.1458C19.6232 75.837 21.2502 74.6609 21.0431 73.0841L20.5234 69.1273C20.4452 68.5318 20.6387 67.9328 21.0504 67.4956L23.7879 64.5891C24.8728 63.4372 24.2536 61.5412 22.6979 61.2516L18.8216 60.5301C18.2256 60.4192 17.712 60.0439 17.4253 59.5097L15.562 56.0381Z" fill="white" fill-opacity="0.7"/>
<path d="M39.0647 12.066C38.3119 10.6537 36.2877 10.6537 35.5349 12.066L32.857 17.09C32.5713 17.626 32.0575 18.0031 31.4605 18.115L25.8808 19.1607C24.3296 19.4515 23.7105 21.3401 24.7886 22.4927L28.7352 26.7121C29.1434 27.1485 29.335 27.7445 29.2577 28.337L28.5092 34.0756C28.3033 35.6543 29.9347 36.829 31.3666 36.1332L36.4257 33.6747C36.9776 33.4065 37.622 33.4065 38.1739 33.6747L43.2331 36.1332C44.6649 36.829 46.2963 35.6543 46.0904 34.0756L45.3419 28.337C45.2646 27.7445 45.4563 27.1485 45.8644 26.7121L49.811 22.4927C50.8891 21.3401 50.27 19.4515 48.7188 19.1607L43.1391 18.115C42.5421 18.0031 42.0283 17.626 41.7426 17.09L39.0647 12.066Z" fill="white" fill-opacity="0.7"/>
<path d="M76.0627 40.0446C75.3086 38.6374 73.291 38.6374 72.537 40.0446L70.5108 43.8257C70.2243 44.3603 69.7107 44.736 69.1145 44.8472L64.8968 45.6334C63.3422 45.9233 62.723 47.8176 63.8064 48.9696L66.7866 52.1389C67.1975 52.5759 67.3906 53.1743 67.3126 53.7691L66.747 58.0821C66.5402 59.6594 68.1682 60.8351 69.6004 60.1428L73.4294 58.292C73.9792 58.0263 74.6204 58.0263 75.1702 58.292L78.9992 60.1428C80.4314 60.8351 82.0595 59.6594 81.8526 58.0821L81.287 53.7691C81.209 53.1743 81.4021 52.5759 81.813 52.1389L84.7932 48.9696C85.8766 47.8176 85.2574 45.9233 83.7028 45.6334L79.4851 44.8472C78.8889 44.736 78.3753 44.3603 78.0888 43.8257L76.0627 40.0446Z" fill="white" fill-opacity="0.7"/>
</g>
<defs>
<filter id="filter0_f_733_17200" x="-2.7002" y="-2.24512" width="94" height="89" filterUnits="userSpaceOnUse" color-interpolation-filters="sRGB">
<feFlood flood-opacity="0" result="BackgroundImageFix"/>
<feBlend mode="normal" in="SourceGraphic" in2="BackgroundImageFix" result="shape"/>
<feGaussianBlur stdDeviation="1.5" result="effect1_foregroundBlur_733_17200"/>
</filter>
</defs>
</svg>
