<svg width="18" height="18" viewBox="0 0 18 18" fill="none" xmlns="http://www.w3.org/2000/svg">
<path fill-rule="evenodd" clip-rule="evenodd" d="M3.20921 2.24522C3.20921 2.09946 3.32736 1.9813 3.47313 1.9813H14.5269C14.6727 1.9813 14.7909 2.09946 14.7909 2.24522V7.71461H3.20921V2.24522ZM16.7195 13.9132C16.7195 14.944 16.0079 15.8087 15.0493 16.0429V16.7033C15.0493 17.4133 14.4737 17.989 13.7636 17.989C13.0535 17.989 12.4779 17.4133 12.4779 16.7033V16.1057H5.52214V16.7033C5.52214 17.4133 4.94652 17.989 4.23643 17.989C3.52635 17.989 2.95071 17.4133 2.95071 16.7033V16.0429C1.99206 15.8087 1.28064 14.944 1.28064 13.9132V2.24522C1.28064 1.03434 2.26225 0.0527344 3.47313 0.0527344H14.5269C15.7378 0.0527344 16.7195 1.03434 16.7195 2.24522V13.9132ZM5.14288 12.8575C5.85296 12.8575 6.4286 12.2818 6.4286 11.5717C6.4286 10.8617 5.85296 10.286 5.14288 10.286C4.43281 10.286 3.85717 10.8617 3.85717 11.5717C3.85717 12.2818 4.43281 12.8575 5.14288 12.8575ZM12.8572 12.8575C13.5673 12.8575 14.1429 12.2818 14.1429 11.5717C14.1429 10.8617 13.5673 10.286 12.8572 10.286C12.1471 10.286 11.5715 10.8617 11.5715 11.5717C11.5715 12.2818 12.1471 12.8575 12.8572 12.8575Z" fill="#4385E3"/>
</svg>
